<?xml version="1.0" standalone="no"?><!DOCTYPE svg PUBLIC "-//W3C//DTD SVG 1.1//EN" "http://www.w3.org/Graphics/SVG/1.1/DTD/svg11.dtd"><svg t="1544612705091" class="icon" style="" viewBox="0 0 1024 1024" version="1.1" xmlns="http://www.w3.org/2000/svg" p-id="5846" xmlns:xlink="http://www.w3.org/1999/xlink" width="200" height="200"><defs><style type="text/css"></style></defs><path d="M267.6 487.9h490.8c110.8 0 200.9-90.1 200.9-200.9S869.2 86.1 758.4 86.1H267.6C156.8 86.1 66.7 176.2 66.7 287s90.1 200.9 200.9 200.9z m0-283.5h490.8c45.5 0 82.6 37.1 82.6 82.6s-37.1 82.6-82.6 82.6H267.6c-45.5 0-82.6-37.1-82.6-82.6s37.1-82.6 82.6-82.6z" fill="#cdcdcd" p-id="5847"></path><path d="M341.5 289.1m-70.8 0a70.8 70.8 0 1 0 141.6 0 70.8 70.8 0 1 0-141.6 0Z" fill="#cdcdcd" p-id="5848"></path><path d="M758.4 534.1H267.6c-110.8 0-200.9 90.1-200.9 200.9s90.1 200.9 200.9 200.9h490.8c110.8 0 200.9-90.1 200.9-200.9s-90.1-200.9-200.9-200.9z m-55.6 271.7c-39.1 0-70.8-31.7-70.8-70.8s31.7-70.8 70.8-70.8 70.8 31.7 70.8 70.8-31.7 70.8-70.8 70.8z" fill="#cdcdcd" p-id="5849"></path></svg>